<?xml version="1.0" encoding="UTF-8"?>
<svg width="475px" height="85px" viewBox="0 0 475 85" version="1.1" xmlns="http://www.w3.org/2000/svg" xmlns:xlink="http://www.w3.org/1999/xlink">
    <!-- Generator: Sketch 43.2 (39069) - http://www.bohemiancoding.com/sketch -->
    <title>Group</title>
    <desc>Created with Sketch.</desc>
    <defs>
        <polygon id="path-1" points="46.711 29.94 0.398 29.94 0.398 0.256 46.711 0.256"></polygon>
    </defs>
    <g id="Page-1" stroke="none" stroke-width="1" fill="none" fill-rule="evenodd">
        <g id="Group">
            <polyline id="Fill-1" fill="#003865" points="40.966 3.457 38.396 3.457 37.601 1.012 36.808 3.457 34.238 3.457 36.316 4.968 35.522 7.412 37.601 5.902 39.681 7.412 38.886 4.968 40.966 3.457"></polyline>
            <polyline id="Fill-2" fill="#003865" points="27.878 9.722 27.084 7.277 26.291 9.722 23.721 9.722 25.799 11.233 25.005 13.678 27.084 12.167 29.164 13.678 28.37 11.233 30.45 9.722 27.878 9.722"></polyline>
            <polyline id="Fill-3" fill="#003865" points="19.376 16.882 18.581 14.438 17.787 16.882 15.217 16.882 17.296 18.393 16.502 20.839 18.581 19.327 20.661 20.839 19.867 18.393 21.946 16.882 19.376 16.882"></polyline>
            <polyline id="Fill-4" fill="#003865" points="12.439 26.057 11.644 23.613 10.851 26.057 8.28 26.057 10.359 27.568 9.565 30.013 11.644 28.502 13.724 30.013 12.929 27.568 15.009 26.057 12.439 26.057"></polyline>
            <polyline id="Fill-5" fill="#003865" points="6.497 33.682 5.704 36.127 3.133 36.127 5.213 37.638 4.418 40.083 6.497 38.572 8.577 40.083 7.783 37.638 9.863 36.127 7.292 36.127 6.497 33.682"></polyline>
            <polyline id="Fill-6" fill="#003865" points="1.732 51.717 3.812 50.207 5.892 51.717 5.097 49.273 7.178 47.763 4.607 47.763 3.812 45.318 3.018 47.763 0.448 47.763 2.527 49.273 1.732 51.717"></polyline>
            <polyline id="Fill-7" fill="#003865" points="3.365 62.067 5.445 63.577 4.65 61.133 6.73 59.622 4.16 59.622 3.365 57.177 2.571 59.622 0 59.622 2.08 61.133 1.285 63.577 3.365 62.067"></polyline>
            <polyline id="Fill-8" fill="#003865" points="6.621 71.482 5.826 69.037 5.033 71.482 2.461 71.482 4.542 72.992 3.747 75.437 5.826 73.927 7.906 75.437 7.112 72.992 9.192 71.482 6.621 71.482"></polyline>
            <path d="M68.945,48.177 L68.942,48.172 C68.941,48.116 68.915,46.773 67.6,46.773 L63.544,46.773 L63.545,47.444 L66.358,47.444 L66.358,48.177 L68.945,48.177" id="Fill-9" fill="#003865"></path>
            <path d="M99.082,59.067 C99.082,59.067 96.883,54.648 92.475,54.637 C92.304,54.303 89.916,49.836 84.463,49.966 L81.055,49.966 C79.859,48.309 77.332,45.635 73.467,45.635 C71.842,43.815 70.032,42.759 68.38,42.136 C67.912,41.397 67.636,40.522 67.636,39.484 C67.636,32.578 75.856,29.06 75.856,22.811 C75.856,16.563 68.344,13.242 63.591,12.913 C63.591,12.913 70.168,13.834 70.168,17.32 C70.168,20.805 58.793,23.798 58.793,31.756 C58.793,35.188 59.804,38.514 62.202,41.19 C58.745,41.012 51.064,39.882 51.064,33.336 C51.064,24.891 61.117,20.587 61.117,12.946 C61.117,5.305 51.93,1.243 46.117,0.84 C46.117,0.84 54.161,1.967 54.161,6.23 C54.161,10.493 40.249,14.153 40.249,23.885 C40.249,33.205 46.323,41.897 63.613,42.618 L63.613,42.619 C63.735,42.62 63.852,42.626 63.97,42.631 C64.051,42.634 64.13,42.638 64.211,42.64 C70.081,43.014 72.175,48.134 72.175,48.134 C78.828,48.134 77.27,53.06 77.27,53.06 C54.743,53.06 51.079,75.336 51.079,75.336 L65.536,75.337 C65.536,75.337 66.884,56.176 86.955,56.176 C86.955,56.176 88.129,52.456 84.068,51.482 L84.968,51.482 C89.387,51.482 91.581,55.934 91.581,55.934 C96.83,55.934 95.601,59.822 95.601,59.822 C77.825,59.822 75.558,75.337 75.558,75.337 L87.348,75.337 C87.348,75.337 87.264,62.954 103.102,62.954 C103.102,62.954 104.331,59.067 99.082,59.067" id="Fill-10" fill="#003865"></path>
            <polyline id="Fill-11" fill="#003865" points="124.534 75.313 117.117 75.313 117.117 53.062 110.986 53.062 110.986 46.779 130.664 46.779 130.664 53.062 124.534 53.062 124.534 75.313"></polyline>
            <path d="M140.083,43.904 L140.083,58.359 L140.159,58.359 C141.748,56.24 143.678,55.256 146.365,55.256 C151.284,55.256 153.668,58.511 153.668,63.43 L153.668,75.313 L146.781,75.313 L146.781,65.36 C146.781,63.09 146.44,60.743 143.678,60.743 C140.954,60.743 140.083,63.09 140.083,65.36 L140.083,75.313 L133.196,75.313 L133.196,43.904 L140.083,43.904" id="Fill-12" fill="#003865"></path>
            <path d="M164.638,59.078 L164.713,59.078 C166.038,56.694 168.308,55.635 170.995,55.635 L172.32,55.635 L172.32,62.257 C171.373,61.728 170.465,61.613 169.406,61.613 C165.583,61.613 164.638,64.149 164.638,67.48 L164.638,75.313 L157.75,75.313 L157.75,55.899 L164.638,55.899 L164.638,59.078" id="Fill-13" fill="#003865"></path>
            <path d="M174.889,75.312 L181.776,75.312 L181.776,55.899 L174.889,55.899 L174.889,75.312 Z M182.193,48.445 C182.193,50.564 180.452,52.305 178.332,52.305 C176.213,52.305 174.473,50.564 174.473,48.445 C174.473,46.326 176.213,44.585 178.332,44.585 C180.452,44.585 182.193,46.326 182.193,48.445 L182.193,48.445 Z" id="Fill-14" fill="#003865"></path>
            <path d="M193.883,75.313 L186.996,75.313 L186.996,61.576 L184.574,61.576 L184.574,55.899 L186.996,55.899 L186.996,53.439 C186.996,50.753 187.072,48.785 188.964,46.629 C190.666,44.623 193.126,43.525 195.738,43.525 C196.797,43.525 197.743,43.715 198.689,44.207 L198.689,50.147 C197.894,49.807 197.175,49.504 196.267,49.504 C194.489,49.504 193.883,50.564 193.883,52.759 L193.883,55.899 L198.689,55.899 L198.689,61.576 L193.883,61.576 L193.883,75.313" id="Fill-15" fill="#003865"></path>
            <polyline id="Fill-16" fill="#003865" points="210.509 75.313 203.622 75.313 203.622 61.576 201.389 61.576 201.389 55.899 203.622 55.899 203.622 50.072 210.509 50.072 210.509 55.899 214.407 55.899 214.407 61.576 210.509 61.576 210.509 75.313"></polyline>
            <path d="M244.109,54.121 C242.747,52.986 241.006,52.229 239.189,52.229 C237.827,52.229 236.011,53.023 236.011,54.613 C236.011,56.278 238.017,56.922 239.303,57.338 L241.195,57.905 C245.168,59.078 248.233,61.084 248.233,65.701 C248.233,68.539 247.553,71.453 245.282,73.383 C243.049,75.274 240.06,76.069 237.184,76.069 C233.589,76.069 230.069,74.858 227.156,72.814 L230.334,66.836 C232.188,68.463 234.384,69.787 236.919,69.787 C238.66,69.787 240.514,68.917 240.514,66.912 C240.514,64.83 237.6,64.111 236.011,63.657 C231.356,62.333 228.291,61.122 228.291,55.597 C228.291,49.807 232.416,46.023 238.13,46.023 C241.006,46.023 244.525,46.932 247.061,48.369 L244.109,54.121" id="Fill-17" fill="#003865"></path>
            <path d="M257.311,65.625 C257.311,68.085 258.938,69.977 261.739,69.977 C264.539,69.977 266.166,68.085 266.166,65.625 C266.166,63.241 264.539,61.235 261.739,61.235 C258.938,61.235 257.311,63.241 257.311,65.625 Z M272.826,75.313 L265.939,75.313 L265.939,73.155 L265.863,73.155 C264.652,75.086 262.268,75.956 259.998,75.956 C254.246,75.956 250.197,71.15 250.197,65.587 C250.197,60.024 254.17,55.256 259.922,55.256 C262.155,55.256 264.5,56.089 265.939,57.792 L265.939,55.899 L272.826,55.899 L272.826,75.313 L272.826,75.313 Z" id="Fill-18" fill="#003865"></path>
            <polyline id="Fill-19" fill="#003865" points="286.936 65.852 291.553 55.899 299.272 55.899 289.131 75.313 284.741 75.313 274.562 55.899 282.282 55.899 286.936 65.852"></polyline>
            <path d="M301.972,75.312 L308.859,75.312 L308.859,55.899 L301.972,55.899 L301.972,75.312 Z M309.276,48.445 C309.276,50.564 307.534,52.305 305.415,52.305 C303.296,52.305 301.556,50.564 301.556,48.445 C301.556,46.326 303.296,44.585 305.415,44.585 C307.534,44.585 309.276,46.326 309.276,48.445 L309.276,48.445 Z" id="Fill-20" fill="#003865"></path>
            <g id="Group-24" transform="translate(313.000000, 55.000000)">
                <mask id="mask-2" fill="white">
                    <use xlink:href="#path-1"></use>
                </mask>
                <g id="Clip-22"></g>
                <path d="M7.284,3.397 L7.361,3.397 C8.951,1.051 10.88,0.256 13.567,0.256 C18.788,0.256 20.87,3.549 20.87,8.316 L20.87,20.313 L13.983,20.313 L13.983,10.852 C13.983,8.998 14.285,5.743 10.88,5.743 C8.079,5.743 7.284,7.824 7.284,10.246 L7.284,20.313 L0.398,20.313 L0.398,0.899 L7.284,0.899 L7.284,3.397" id="Fill-21" fill="#003865" mask="url(#mask-2)"></path>
                <path d="M31.197,10.474 C31.197,12.934 32.824,14.825 35.624,14.825 C38.424,14.825 40.051,12.934 40.051,10.474 C40.051,8.09 38.424,6.084 35.624,6.084 C32.824,6.084 31.197,8.09 31.197,10.474 Z M46.711,18.42 C46.711,26.67 42.624,30 35.472,30 C31.007,30 25.029,27.691 24.423,22.583 L32.142,22.583 C32.331,23.264 32.824,23.756 33.429,24.059 C34.034,24.361 34.753,24.513 35.397,24.513 C39.105,24.513 39.825,22.091 39.825,18.95 L39.825,18.042 C38.046,19.82 36.23,20.691 33.656,20.691 C27.98,20.691 24.082,16.377 24.082,10.776 C24.082,5.1 28.093,0.256 34.034,0.256 C36.305,0.256 38.386,1.014 39.748,2.943 L39.825,2.943 L39.825,0.899 L46.711,0.899 L46.711,18.42 L46.711,18.42 Z" id="Fill-23" fill="#003865" mask="url(#mask-2)"></path>
            </g>
            <path d="M376.848,60.895 C375.788,60.327 374.313,59.949 373.14,59.949 C372.345,59.949 370.983,60.289 370.983,61.273 C370.983,62.598 373.14,62.787 374.085,62.977 C377.302,63.619 379.724,65.133 379.724,68.729 C379.724,73.837 375.07,75.956 370.567,75.956 C367.804,75.956 365.079,75.161 362.734,73.723 L365.231,68.917 C366.631,69.901 368.977,70.885 370.68,70.885 C371.55,70.885 372.837,70.469 372.837,69.409 C372.837,67.896 370.68,67.82 368.523,67.252 C366.367,66.685 364.209,65.625 364.209,62.144 C364.209,57.375 368.523,55.256 372.761,55.256 C374.956,55.256 377.151,55.597 379.157,56.505 L376.848,60.895" id="Fill-25" fill="#003865"></path>
            <path d="M399.971,59.873 L401.22,59.873 C403.906,59.873 406.555,59.873 406.555,56.392 C406.555,52.797 404.096,52.759 401.22,52.759 L399.971,52.759 L399.971,59.873 Z M392.554,46.779 L403.906,46.779 C410.037,46.779 414.275,49.618 414.275,56.164 C414.275,62.9 410.643,65.852 404.171,65.852 L399.971,65.852 L399.971,75.313 L392.554,75.313 L392.554,46.779 L392.554,46.779 Z" id="Fill-26" fill="#003865"></path>
            <polygon id="Fill-27" fill="#003865" points="416.844 75.312 423.73 75.312 423.73 43.904 416.844 43.904"></polygon>
            <path d="M433.983,65.625 C433.983,68.085 435.611,69.977 438.411,69.977 C441.211,69.977 442.839,68.085 442.839,65.625 C442.839,63.241 441.211,61.235 438.411,61.235 C435.611,61.235 433.983,63.241 433.983,65.625 Z M449.499,75.313 L442.611,75.313 L442.611,73.155 L442.536,73.155 C441.325,75.086 438.941,75.956 436.67,75.956 C430.918,75.956 426.869,71.15 426.869,65.587 C426.869,60.024 430.843,55.256 436.595,55.256 C438.827,55.256 441.174,56.089 442.611,57.792 L442.611,55.899 L449.499,55.899 L449.499,75.313 L449.499,75.313 Z" id="Fill-28" fill="#003865"></path>
            <path d="M460.961,58.397 L461.036,58.397 C462.625,56.051 464.556,55.256 467.242,55.256 C472.465,55.256 474.546,58.549 474.546,63.316 L474.546,75.313 L467.658,75.313 L467.658,65.852 C467.658,63.998 467.961,60.743 464.556,60.743 C461.755,60.743 460.961,62.824 460.961,65.246 L460.961,75.313 L454.073,75.313 L454.073,55.899 L460.961,55.899 L460.961,58.397" id="Fill-29" fill="#003865"></path>
        </g>
    </g>
</svg>